<svg width="44" height="44" viewBox="0 0 44 44" fill="none" xmlns="http://www.w3.org/2000/svg">
<path d="M25.2633 17.3434C25.1718 17.3434 25.0812 17.3614 24.9967 17.3964C24.9122 17.4315 24.8354 17.4828 24.7707 17.5475C24.706 17.6122 24.6547 17.689 24.6197 17.7735C24.5846 17.858 24.5666 17.9486 24.5666 18.0401V21.1017L22 17.6917C21.936 17.588 21.8472 17.5018 21.7416 17.441C21.6359 17.3802 21.5168 17.3466 21.395 17.3434C21.3035 17.3434 21.2129 17.3614 21.1284 17.3964C21.0438 17.4315 20.967 17.4828 20.9023 17.5475C20.8377 17.6122 20.7863 17.689 20.7513 17.7735C20.7163 17.858 20.6983 17.9486 20.6983 18.0401V23.2467C20.6983 23.3382 20.7163 23.4288 20.7513 23.5134C20.7863 23.5979 20.8377 23.6747 20.9023 23.7394C20.967 23.8041 21.0438 23.8554 21.1284 23.8904C21.2129 23.9254 21.3035 23.9434 21.395 23.9434C21.4864 23.9434 21.577 23.9254 21.6616 23.8904C21.7461 23.8554 21.8229 23.8041 21.8876 23.7394C21.9523 23.6747 22.0036 23.5979 22.0386 23.5134C22.0736 23.4288 22.0916 23.3382 22.0916 23.2467V20.1667L24.64 23.6684C24.7048 23.7661 24.8023 23.8376 24.915 23.8701C24.9995 23.889 25.0871 23.889 25.1716 23.8701C25.252 23.8993 25.3377 23.9112 25.4231 23.9049C25.5084 23.8985 25.5914 23.8742 25.6666 23.8334L25.85 23.7051C25.9786 23.5724 26.0509 23.3949 26.0516 23.2101V18.0401C26.0525 17.9403 26.0319 17.8416 25.9913 17.7505C25.9507 17.6594 25.8911 17.578 25.8163 17.512C25.7416 17.4459 25.6535 17.3967 25.5581 17.3676C25.4627 17.3385 25.3622 17.3303 25.2633 17.3434ZM16.8666 22.4951H14.9233V18.0401C14.9233 17.8553 14.8499 17.6781 14.7192 17.5475C14.5886 17.4168 14.4114 17.3434 14.2266 17.3434C14.0419 17.3434 13.8647 17.4168 13.734 17.5475C13.6034 17.6781 13.53 17.8553 13.53 18.0401V23.2467C13.53 23.4315 13.6034 23.6087 13.734 23.7394C13.8647 23.87 14.0419 23.9434 14.2266 23.9434H16.8666C17.0531 23.9435 17.2323 23.8707 17.3658 23.7405C17.4994 23.6104 17.5768 23.4332 17.5816 23.2467C17.5866 23.1498 17.5718 23.0529 17.5381 22.9619C17.5044 22.8708 17.4525 22.7876 17.3856 22.7173C17.3187 22.647 17.2382 22.591 17.149 22.5528C17.0598 22.5146 16.9637 22.495 16.8666 22.4951ZM18.9016 17.3434C18.7151 17.3434 18.536 17.4162 18.4024 17.5463C18.2688 17.6765 18.1914 17.8536 18.1866 18.0401V23.2467C18.1914 23.4332 18.2688 23.6104 18.4024 23.7405C18.536 23.8707 18.7151 23.9435 18.9016 23.9434C19.0864 23.9434 19.2636 23.87 19.3942 23.7394C19.5249 23.6087 19.5983 23.4315 19.5983 23.2467V18.0401C19.5983 17.8553 19.5249 17.6781 19.3942 17.5475C19.2636 17.4168 19.0864 17.3434 18.9016 17.3434ZM32.835 3.66675H11.165C9.17777 3.67159 7.27335 4.46314 5.86818 5.86831C4.46302 7.27347 3.67147 9.17789 3.66663 11.1651V32.8351C3.67147 34.8223 4.46302 36.7267 5.86818 38.1319C7.27335 39.537 9.17777 40.3286 11.165 40.3334H32.835C34.8222 40.3286 36.7266 39.537 38.1317 38.1319C39.5369 36.7267 40.3285 34.8223 40.3333 32.8351V11.1651C40.3285 9.17789 39.5369 7.27347 38.1317 5.86831C36.7266 4.46314 34.8222 3.67159 32.835 3.66675ZM33.4033 26.1801C33.3311 26.2893 33.2515 26.3935 33.165 26.4917C32.7278 27.0298 32.2363 27.5212 31.6983 27.9584C28.0316 31.3867 21.8716 35.4934 21.0466 34.8517C20.2216 34.2101 22.22 31.6251 20.075 31.1851C19.9228 31.2043 19.7688 31.2043 19.6166 31.1851C13.31 30.3051 8.61663 25.8867 8.61663 20.5884C8.61663 14.6301 14.6483 9.80841 22.0733 9.80841C29.4983 9.80841 35.53 14.6301 35.53 20.5884C35.4663 22.6377 34.7176 24.6065 33.4033 26.1801ZM30.2683 17.3617H27.5C27.4085 17.3617 27.3179 17.3798 27.2334 17.4148C27.1488 17.4498 27.072 17.5011 27.0073 17.5658C26.9426 17.6305 26.8913 17.7073 26.8563 17.7918C26.8213 17.8763 26.8033 17.9669 26.8033 18.0584V23.2651C26.8033 23.4498 26.8767 23.627 27.0073 23.7577C27.138 23.8883 27.3152 23.9617 27.5 23.9617H30.2133C30.3981 23.9617 30.5753 23.8883 30.7059 23.7577C30.8366 23.627 30.91 23.4498 30.91 23.2651C30.91 23.1736 30.8919 23.083 30.8569 22.9985C30.8219 22.914 30.7706 22.8372 30.7059 22.7725C30.6412 22.7078 30.5644 22.6565 30.4799 22.6214C30.3954 22.5864 30.3048 22.5684 30.2133 22.5684H28.325V21.4684H30.2683C30.4547 21.4636 30.6319 21.3862 30.7621 21.2526C30.8922 21.1191 30.965 20.9399 30.965 20.7534C30.965 20.5686 30.8916 20.3914 30.7609 20.2608C30.6303 20.1301 30.4531 20.0567 30.2683 20.0567H28.325V18.9384H30.2683C30.3598 18.9384 30.4504 18.9204 30.5349 18.8854C30.6194 18.8504 30.6962 18.7991 30.7609 18.7344C30.8256 18.6697 30.8769 18.5929 30.9119 18.5084C30.9469 18.4238 30.965 18.3332 30.965 18.2417C30.9938 18.1364 30.9974 18.0257 30.9756 17.9187C30.9537 17.8116 30.907 17.7112 30.8392 17.6256C30.7714 17.5399 30.6844 17.4714 30.5852 17.4256C30.486 17.3797 30.3775 17.3579 30.2683 17.3617Z" fill="#9BE43E"/>
</svg>
